<svg width="200" height="73" viewBox="0 0 200 73" fill="none" xmlns="http://www.w3.org/2000/svg">
<path d="M3.79772 0.948567C2.51805 1.60844 1.69246 2.43328 1.03199 3.75303L0.0825591 5.56767L0.165118 28.7045L0.288957 51.8412L8.54486 50.1091C13.0856 49.1193 17.874 48.1294 19.1537 47.8408C20.8874 47.5108 21.5892 47.1396 21.7543 46.5623C22.0846 45.5312 24.0247 44.5414 25.6759 44.5414C27.4096 44.5414 29.7625 45.5724 31.2899 47.0572L32.5283 48.2532L37.2754 47.8408C44.4993 47.2221 44.2517 47.1809 44.2517 48.8718C44.2517 50.5627 44.4993 50.4802 35.583 51.1401C25.1805 51.9237 25.1805 51.7175 35.583 54.7282C43.4674 56.9965 44.9534 57.2852 46.068 56.914C46.7697 56.7078 49.8657 54.357 52.9204 51.7175C58.9059 46.5623 61.5065 44.5414 62.0844 44.5414C62.2908 44.5414 62.0844 45.0363 61.5891 45.6549C60.9699 46.4798 60.7635 47.1396 60.9286 48.047C61.135 49.243 60.8048 49.5317 53.2919 55.553C46.3982 61.0794 45.2424 61.863 43.9214 61.863C43.0546 61.9043 38.1836 61.2857 33.0236 60.5433L23.6945 59.2236L18.2868 60.2958C15.3147 60.9145 9.98965 62.2755 6.43961 63.389L0 65.3686L0.247677 67.2245C0.536634 69.3691 1.44478 70.7301 3.38492 72.0498L4.74715 72.9984H38.7615C76.6974 72.9984 74.6334 73.1634 76.6974 70.1527L77.6881 68.668V4.66035L76.7799 3.29936C76.2433 2.55701 75.2939 1.52596 74.6747 1.07229C73.5189 0.20621 73.2712 0.206211 39.5458 0.0824844L5.61402 3.70637e-07L3.79772 0.948567ZM73.1886 3.29936C75.2526 4.4129 75.2113 3.918 75.2113 36.8704V67.6369L74.0142 68.9567L72.8171 70.3177L39.5458 70.4414C3.38492 70.5651 4.66459 70.6064 3.38492 68.2968C3.09597 67.7194 2.93085 67.142 3.01341 67.0595C3.50876 66.5646 16.5118 62.9766 19.9793 62.358C23.9421 61.6981 23.9834 61.6981 32.1568 62.8941C36.6562 63.5952 41.7336 64.1314 43.4261 64.1314H46.522L58.4105 54.5632L70.2578 44.9951L68.9368 44.0052C67.2031 42.7267 65.2217 42.0669 63.199 42.0669H61.5891V32.9936C61.5891 28.0033 61.7542 23.9204 61.9193 23.9204C62.1257 23.9204 62.7862 24.4565 63.4467 25.1576C64.974 26.7661 65.3042 26.7248 65.3042 24.9927C65.3042 23.6729 64.685 23.0543 54.7367 14.4347C48.9575 9.44442 43.9627 5.23774 43.6738 5.11401C43.3848 4.99029 41.3208 6.51624 39.0917 8.45462C36.8626 10.393 34.8812 11.9602 34.6748 11.9602C34.5097 11.9602 34.3446 10.558 34.3446 8.86704V5.73264L27.9463 5.98009L27.5335 18.4352L24.5613 20.9922C21.713 23.4255 21.5479 23.6729 21.5479 25.2814V26.9723L23.1165 25.4463C23.9834 24.6215 24.809 23.9204 24.9741 23.9204C25.1392 23.9204 25.2631 28.0033 25.2631 32.9936V42.0256L23.7357 42.3143C22.9101 42.4793 21.5479 43.2216 20.7223 43.964C19.3188 45.2425 18.5758 45.49 11.4344 47.0159C7.18264 47.9232 3.55004 48.6656 3.34364 48.6656C3.13725 48.6656 2.97213 39.2624 2.97213 26.9723V5.27898L5.36634 2.88694H38.8853C61.0524 2.88694 72.652 3.01067 73.1886 3.29936ZM55.3971 18.5177C55.3971 18.6414 50.0308 18.7651 43.4261 18.7651C36.8626 18.7651 31.455 18.6414 31.455 18.5177C31.455 18.3939 34.1382 15.9194 37.4818 13.0737L43.4674 7.87723L49.4529 13.0737C52.714 15.9194 55.3971 18.3527 55.3971 18.5177ZM32.2806 11.2591C32.2806 13.9398 32.1568 14.3935 31.2486 15.2596L30.2166 16.2081V12.2489C30.2166 8.24841 30.2166 8.24841 31.2486 8.24841C32.2393 8.24841 32.2806 8.33089 32.2806 11.2591ZM59.0297 32.21L59.1123 43.2216L55.0256 46.7685L50.8977 50.3153L50.1134 48.5419C49.2465 46.5623 47.8017 45.6549 44.747 45.16L42.972 44.8713L43.0133 37.0353L43.0958 29.1994L40.0824 25.735C37.6882 22.9718 36.9865 22.3532 36.5737 22.7656C36.2847 23.0543 34.9225 24.6627 33.5603 26.3124L31.0422 29.3643V36.3755C31.0422 42.6443 30.9597 43.3454 30.3817 43.1392C30.0102 43.0154 29.2672 42.768 28.7306 42.6443L27.7399 42.3968V32.0038C27.7399 26.2712 27.8637 21.4459 28.0288 21.3221C28.1939 21.1572 35.1702 21.0747 43.5912 21.1159L58.9059 21.2396L59.0297 32.21ZM38.9266 28.1271L39.7522 29.2818H34.3033L35.6242 27.6322C37.069 25.8175 37.358 25.8588 38.9266 28.1271ZM40.9493 37.9427H39.7109C38.7615 37.9427 38.4725 38.1076 38.4725 38.7675C38.4725 39.4274 38.7615 39.5924 39.7109 39.5924H40.9493V45.2425L37.358 45.49C35.3353 45.6137 33.6015 45.6137 33.4364 45.49C33.23 45.4075 33.1062 42.2731 33.1062 38.5201V31.7564H40.9493V37.9427ZM66.749 44.2115C67.3269 44.4589 67.781 44.7888 67.781 44.9126C67.7397 45.3662 62.6623 49.0368 62.3321 48.8306C61.6304 48.3769 62.0432 46.8922 63.3228 45.325C64.7263 43.5928 65.0978 43.4691 66.749 44.2115ZM47.2238 48.5419C48.4209 49.6142 48.1319 50.3153 46.522 50.3153C44.9947 50.3153 44.9534 50.2328 45.3249 48.7481C45.6139 47.6758 46.1918 47.5933 47.2238 48.5419ZM47.9668 52.6248C47.9668 53.0373 46.6872 53.9858 45.5726 54.4395C44.8709 54.7282 43.9627 54.6457 42.3115 54.192C41.0731 53.8209 40.165 53.4497 40.2476 53.3672C40.3714 53.2435 41.9813 52.996 43.8801 52.831C45.779 52.6248 47.4715 52.4599 47.6779 52.4186C47.843 52.4186 47.9668 52.5011 47.9668 52.6248Z" fill="#BF163D"/>
<path d="M45.0773 40.0048H56.6355V29.2818H45.0773V40.0048ZM54.1588 37.9427H47.554V31.3439H54.1588V37.9427Z" fill="#BF163D"/>
<path d="M94.0761 1.31975C93.7458 2.0621 92.4249 4.94904 91.1452 7.7535C89.8656 10.558 88.8336 12.9088 88.8336 13.0325C88.8336 13.115 89.1225 13.1975 89.4528 13.1975C89.783 13.1975 90.4435 12.4551 90.8975 11.5478L91.7231 9.89809H98.7407L99.5662 11.5478C100.02 12.4551 100.681 13.1975 101.011 13.1975C101.341 13.1975 101.63 13.0737 101.63 12.8675C101.548 11.754 95.8098 0.164969 95.2732 0.0824853C94.9017 1.25984e-06 94.4063 0.453664 94.0761 1.31975ZM96.9244 5.56767L98.2866 8.66083H92.1359L93.1266 6.475C94.9017 2.55701 95.1493 2.0621 95.3557 2.26831C95.4796 2.39204 96.1813 3.87675 96.9244 5.56767Z" fill="#BF163D"/>
<path d="M121.486 0.907322C117.151 3.21688 116.739 9.60939 120.701 12.4551C122.642 13.8161 126.439 13.8161 128.379 12.4138C130.278 11.0941 129.494 10.393 127.389 11.5065C125.49 12.5376 123.921 12.6201 122.229 11.754C118.39 9.73312 118.555 3.46433 122.476 1.81465C124.375 1.03105 124.994 1.07229 127.141 2.10334C129.411 3.21688 130.402 2.59824 128.503 1.2785C126.563 -0.123729 123.673 -0.288697 121.486 0.907322Z" fill="#BF163D"/>
<path d="M160.866 3.95923C159.834 6.14506 159.009 8.00095 159.009 8.08344C159.009 8.16592 158.472 9.36194 157.812 10.7229C156.697 13.0325 156.656 13.1974 157.399 13.1974C157.936 13.1974 158.39 12.6613 158.844 11.5478L159.504 9.89809H166.934L167.554 11.5065C167.884 12.4138 168.544 13.1974 168.957 13.3212C169.411 13.4449 169.741 13.4449 169.741 13.2799C169.741 13.1562 168.421 10.1043 166.811 6.51624C165.036 2.63949 163.632 0 163.261 0C162.93 0 161.898 1.73216 160.866 3.95923ZM166.026 8.28965C166.026 8.49586 164.747 8.66083 163.137 8.66083C161.568 8.66083 160.247 8.57834 160.247 8.49586C160.247 8.41337 160.908 6.88742 161.733 5.11401L163.219 1.85589L164.623 4.9078C165.407 6.55748 166.026 8.12468 166.026 8.28965Z" fill="#BF163D"/>
<path d="M104.107 5.23774C104.107 9.3207 104.231 10.3105 104.891 11.3828C106.501 14.0223 111.001 14.311 113.354 12.0014C114.633 10.7229 114.633 10.6817 114.757 5.56768C114.881 1.07229 114.84 0.412422 114.262 0.412422C113.684 0.412422 113.601 1.07229 113.601 4.53662C113.601 7.13487 113.395 9.19697 113.023 10.0631C111.868 12.785 107.698 13.115 106.171 10.5992C105.469 9.52691 105.345 8.49586 105.345 4.82532C105.345 1.19602 105.222 0.412422 104.726 0.412422C104.231 0.412422 104.107 1.23726 104.107 5.23774Z" fill="#BF163D"/>
<path d="M132.59 6.80494C132.59 12.2076 132.672 13.1975 133.209 13.1975C133.663 13.1975 133.828 12.7438 133.828 11.424C133.828 9.93933 134.076 9.40319 135.232 8.28965L136.635 6.92866L139.071 10.0218C140.474 11.8365 141.837 13.1975 142.414 13.3212C142.91 13.4037 143.323 13.4037 143.323 13.2799C143.323 13.1562 142.332 11.8365 141.135 10.3518C137.337 5.65016 137.378 6.18631 140.433 3.09316C142.538 0.989813 142.91 0.412424 142.249 0.412424C141.754 0.412424 140.02 1.8559 137.791 4.12421C135.768 6.14507 134.076 7.83599 133.993 7.83599C133.911 7.83599 133.828 6.14507 133.828 4.12421C133.828 1.11354 133.704 0.412424 133.209 0.412424C132.672 0.412424 132.59 1.40223 132.59 6.80494Z" fill="#BF163D"/>
<path d="M146.006 6.80494V13.1975H150.464C154.097 13.1975 154.881 13.0737 154.881 12.5788C154.881 12.0839 154.179 11.9602 151.166 11.9602H147.451V6.18631C147.451 0.948568 147.368 0.412422 146.749 0.412422C146.088 0.412422 146.006 0.98981 146.006 6.80494Z" fill="#BF163D"/>
<path d="M172.631 6.80494C172.631 12.2076 172.714 13.1975 173.25 13.1975C173.787 13.1975 173.869 12.3314 173.869 8.0422C173.869 5.1965 173.993 2.88694 174.2 2.92819C174.365 2.92819 176.264 5.23774 178.41 8.0422C180.763 11.0941 182.621 13.1975 183.075 13.1975C183.694 13.1975 183.777 12.6201 183.777 6.80494C183.777 0.98981 183.694 0.412422 183.075 0.412422C182.414 0.412422 182.332 0.7836 182.456 3.83551C182.538 5.73264 182.538 8.08344 182.456 9.07325L182.332 10.9291L178.204 5.65016C175.727 2.47452 173.787 0.412422 173.374 0.412422C172.714 0.412422 172.631 0.98981 172.631 6.80494Z" fill="#BF163D"/>
<path d="M187.492 13.1975H190.835C193.064 13.1975 194.633 12.9912 195.582 12.5376C200.041 10.4342 200.164 3.46433 195.748 1.23726C194.509 0.618632 193.312 0.412422 190.794 0.412422H187.492V13.1975ZM194.881 2.22707C198.101 3.91799 198.513 8.5371 195.706 10.8879C194.633 11.7952 194.055 11.9602 191.62 11.9602H188.771V6.80494L188.813 1.64968H191.248C192.61 1.64968 194.262 1.93838 194.881 2.22707Z" fill="#BF163D"/>
<path d="M102.869 25.2401C102.869 31.1377 102.951 32.1688 103.488 32.1688C103.983 32.1688 104.107 31.5914 104.107 29.4881V26.8073H106.171C108.194 26.8073 108.235 26.8073 110.175 29.4881C111.62 31.4264 112.404 32.1275 113.147 32.1688H114.097L112.941 30.6016C112.322 29.7767 111.455 28.622 111.042 28.0858C110.051 26.7661 110.093 26.6011 111.537 25.9825C113.106 25.3226 113.601 24.4565 113.601 22.3532C113.601 21.1984 113.312 20.4973 112.528 19.7549C111.579 18.8889 111.001 18.7239 107.162 18.5589L102.869 18.3527V25.2401ZM111.331 20.8272C112.569 22.0232 112.652 23.0955 111.579 24.374C110.877 25.2401 110.34 25.3639 107.451 25.4876L104.107 25.6525V19.7962H107.203C109.969 19.7962 110.464 19.9199 111.331 20.8272Z" fill="#BF163D"/>
<path d="M120.825 18.7239C115.995 20.8272 115.252 27.8796 119.463 31.0965C123.302 33.9834 128.586 32.375 130.361 27.8384C132.59 21.9408 126.563 16.2081 120.825 18.7239ZM126.687 20.4148C130.443 22.8893 129.989 28.622 125.861 30.6841C120.701 33.1998 115.83 26.2712 119.463 21.6521C121.197 19.425 124.334 18.8889 126.687 20.4148Z" fill="#BF163D"/>
<path d="M134.406 18.5177C134.324 18.6002 134.241 21.7346 134.241 25.4463C134.241 31.8801 134.282 32.1688 135.067 32.1688C135.81 32.1688 135.892 31.8801 135.892 29.6943V27.2197H138.575C141.506 27.2197 143.405 26.5186 144.148 25.1989C144.932 23.7142 144.644 21.1572 143.57 19.9199C142.621 18.8476 142.332 18.7651 138.575 18.5589C136.388 18.4352 134.489 18.4352 134.406 18.5177ZM142.291 20.8272C144.85 23.343 142.745 25.9825 138.163 25.9825H135.892V19.7962H138.575C140.928 19.7962 141.424 19.9199 142.291 20.8272Z" fill="#BF163D"/>
<path d="M147.863 32.1688H152.817C156.945 32.1688 157.77 32.0451 157.77 31.5502C157.77 31.0553 157.027 30.9315 153.436 30.9315H149.102V25.9825H153.023C156.202 25.9825 156.945 25.8588 156.945 25.3639C156.945 24.9102 156.16 24.7452 153.147 24.6627L149.308 24.539L149.06 19.7962H153.436C156.945 19.7962 157.77 19.6725 157.77 19.2188C157.77 18.7239 156.78 18.6002 152.817 18.4764L147.863 18.3527V32.1688Z" fill="#BF163D"/>
<path d="M174.695 19.0538C174.695 19.6725 175.067 19.7962 176.965 19.7962H179.236V25.9825C179.236 31.8801 179.277 32.1688 180.061 32.1688C180.846 32.1688 180.887 31.8801 180.887 25.9825V19.7962H183.157C185.056 19.7962 185.428 19.6725 185.428 19.0538C185.428 18.4352 184.891 18.3527 180.061 18.3527C175.232 18.3527 174.695 18.4352 174.695 19.0538Z" fill="#BF163D"/>
<path d="M187.987 18.5177C187.615 18.7651 188.193 19.9199 190.175 22.8068C192.817 26.6836 192.858 26.8073 192.858 29.4468C192.858 31.8801 192.941 32.1688 193.684 32.1688C194.427 32.1688 194.509 31.8801 194.509 29.4468C194.509 26.7661 194.55 26.6424 197.11 22.9306C200.577 17.9403 200.412 18.229 199.256 18.4764C198.555 18.6002 197.605 19.6312 196.119 21.8995C194.963 23.6729 193.89 25.1576 193.725 25.1576C193.601 25.1576 192.569 23.7554 191.496 22.0645C189.184 18.5589 188.689 18.064 187.987 18.5177Z" fill="#BF163D"/>
<path d="M89.2464 25.3639C89.2464 31.8801 89.2876 32.1688 90.072 32.1688C90.815 32.1688 90.8975 31.8801 90.8975 29.6943V27.2197H93.5807C97.9563 27.2197 99.5662 25.9825 99.5662 22.6831C99.5662 21.3221 99.3186 20.7035 98.3691 19.7549C97.2133 18.6002 97.0069 18.5589 93.2092 18.5589H89.2464V25.3639ZM97.2959 20.8272C99.8552 23.343 97.7499 25.9825 93.1679 25.9825H90.8975V19.7962H93.5807C95.9336 19.7962 96.429 19.9199 97.2959 20.8272Z" fill="#BF163D"/>
<path d="M161.073 25.3639C161.073 31.8801 161.114 32.1688 161.898 32.1688C162.641 32.1688 162.724 31.8801 162.724 29.4881V26.8073H164.705C166.687 26.8073 166.728 26.8486 168.668 29.4881C170.154 31.5089 170.897 32.1688 171.64 32.1688C172.59 32.1688 172.548 32.0451 170.567 29.5293C168.297 26.6424 168.173 26.3949 169.164 26.3949C169.494 26.3949 170.361 25.8588 171.021 25.1989C171.888 24.2916 172.218 23.5904 172.218 22.4769C172.218 21.3634 171.888 20.6623 171.021 19.7549C169.824 18.6002 169.7 18.5589 165.448 18.5589H161.073V25.3639ZM169.741 20.621C170.939 21.817 170.815 23.6729 169.494 24.704C168.627 25.4051 167.801 25.5701 165.572 25.5701H162.724V19.7962H165.82C168.379 19.7962 169.081 19.9611 169.741 20.621Z" fill="#BF163D"/>
<path d="M89.2464 47.0159H90.2784C91.2278 47.0159 91.2691 46.8922 91.3929 43.799L91.5167 40.6234L92.7551 42.5618C93.4569 43.6753 94.0761 44.5414 94.1999 44.5414C94.3237 44.5414 94.9429 43.7166 95.5621 42.6855C96.2226 41.6544 96.8831 40.8296 97.0069 40.8296C97.172 40.8296 97.2546 42.2318 97.172 43.9228L97.0069 47.0159H99.3598L99.1947 36.9116L98.1627 36.7879C97.2959 36.6642 96.8831 36.9941 95.8098 38.7263C95.1081 39.881 94.4063 40.8296 94.2825 40.8296C94.1173 40.8296 93.3743 39.881 92.6313 38.7675C91.6406 37.2003 91.0627 36.7054 90.2784 36.7054H89.2464V47.0159Z" fill="#BF163D"/>
<path d="M103.529 41.3245C102.415 43.8815 101.465 46.2323 101.341 46.4798C101.217 46.8509 101.506 47.0159 102.208 47.0159C102.951 47.0159 103.447 46.686 103.777 45.9849C104.19 45.0775 104.479 44.9538 106.46 44.9538C108.4 44.9538 108.73 45.0775 109.143 45.9849C109.473 46.7272 109.927 47.0159 110.753 47.0159H111.868L109.721 41.9431C107.822 37.5302 107.451 36.9116 106.501 36.7879C105.552 36.6642 105.345 36.9941 103.529 41.3245ZM107.203 41.0771C107.987 43.0154 108.029 42.8917 106.419 42.8917H105.015L105.634 41.242C106.006 40.3347 106.377 39.5924 106.419 39.5924C106.501 39.5924 106.873 40.2522 107.203 41.0771Z" fill="#BF163D"/>
<path d="M113.601 47.0159H114.633C115.624 47.0159 115.665 46.9334 115.665 43.9228C115.665 42.2318 115.789 40.8296 115.996 40.8709C116.161 40.8709 117.275 42.2731 118.472 43.964C120.165 46.3148 120.908 47.0159 121.692 47.0159H122.683V36.7054H121.651C120.66 36.7054 120.619 36.7879 120.619 39.7986C120.619 41.4895 120.495 42.8917 120.33 42.8505C120.123 42.8505 119.009 41.4482 117.812 39.7573C116.119 37.4065 115.376 36.7054 114.592 36.7054H113.601V47.0159Z" fill="#BF163D"/>
<path d="M128.256 38.0252C127.967 38.7675 126.976 41.1183 126.068 43.1804L124.375 47.0159H125.614C126.522 47.0159 126.852 46.7685 127.058 45.9849C127.306 45.0363 127.512 44.9538 129.659 44.9538C131.806 44.9538 132.095 45.0775 132.507 45.9849C132.838 46.686 133.333 47.0159 134.076 47.0159C134.778 47.0159 135.067 46.8509 134.943 46.4798C134.86 46.2323 133.87 43.8815 132.796 41.3245C131.063 37.2828 130.691 36.7054 129.824 36.7054C129.081 36.7054 128.668 37.0766 128.256 38.0252ZM130.939 42.5205C130.939 42.7267 130.402 42.8917 129.7 42.8917C128.256 42.8917 128.297 43.0154 129.122 40.9946L129.783 39.4274L130.361 40.7884C130.691 41.5307 130.939 42.3143 130.939 42.5205Z" fill="#BF163D"/>
<path d="M138.988 37.0766C138.534 37.2828 137.709 37.9427 137.131 38.5613C136.264 39.4686 136.099 40.0873 136.099 42.0669C136.099 44.0465 136.264 44.6651 137.089 45.5312C138.906 47.4283 142.125 47.7995 144.478 46.356C145.221 45.8611 145.387 45.4075 145.387 43.5103V41.242H143.323C141.382 41.242 141.259 41.3245 141.259 42.2731C141.259 43.0979 141.465 43.3041 142.291 43.3041C143.735 43.3041 143.735 44.8301 142.291 45.2013C140.805 45.5724 138.947 44.6651 138.369 43.3454C137.131 40.3347 140.103 37.6952 142.992 39.2212C143.735 39.5924 143.983 39.5511 144.437 38.9325C144.891 38.3139 144.891 38.1076 144.396 37.6127C143.694 36.9116 140.185 36.5404 138.988 37.0766Z" fill="#BF163D"/>
<path d="M147.863 47.0159H151.785C155.417 47.0159 155.706 46.9334 155.706 46.1911C155.706 45.49 155.376 45.4075 152.941 45.2837C150.216 45.16 150.134 45.1188 150.01 44.0052C149.886 42.8917 149.886 42.8917 152.363 42.8917C154.757 42.8917 154.881 42.8505 154.881 41.8607C154.881 40.8709 154.757 40.8296 152.404 40.8296C150.051 40.8296 149.927 40.7884 149.927 39.7986C149.927 38.8088 150.01 38.7675 152.858 38.7675C155.624 38.7675 155.748 38.7263 155.624 37.8189C155.5 36.9529 155.294 36.9116 151.702 36.7879L147.863 36.6642V47.0159Z" fill="#BF163D"/>
<path d="M157.77 47.0159H158.802C159.752 47.0159 159.793 46.8922 159.917 43.799L160.041 40.6234L161.279 42.5618C161.981 43.6753 162.641 44.5414 162.807 44.5414C162.93 44.5414 163.591 43.7166 164.251 42.6855C164.87 41.6544 165.49 40.8296 165.614 40.8296C165.737 40.8296 165.779 42.2318 165.696 43.9228L165.531 47.0159H168.132L167.884 36.9116L166.811 36.7879C165.902 36.6642 165.49 36.9941 164.375 38.7263C163.673 39.881 162.93 40.8296 162.765 40.8296C162.6 40.8296 161.94 39.881 161.279 38.7675C160.288 37.0766 159.876 36.7054 158.926 36.7054H157.77V47.0159Z" fill="#BF163D"/>
<path d="M170.567 47.0159H174.489C178.121 47.0159 178.41 46.9334 178.41 46.1911C178.41 45.49 178.08 45.4075 175.644 45.2837C172.92 45.16 172.837 45.1188 172.714 44.0052C172.59 42.8917 172.59 42.8917 175.067 42.8917C177.461 42.8917 177.585 42.8505 177.585 41.8607C177.585 40.8709 177.461 40.8296 175.108 40.8296C172.755 40.8296 172.631 40.7884 172.631 39.7986C172.631 38.8088 172.714 38.7675 175.521 38.7675C178.286 38.7675 178.41 38.7263 178.245 37.8189C178.121 36.9529 177.915 36.9116 174.365 36.7879L170.567 36.6642V47.0159Z" fill="#BF163D"/>
<path d="M180.474 41.8607V47.0159H181.506C182.456 47.0159 182.497 46.8922 182.621 43.8403L182.745 40.6646L185.139 43.8403C186.955 46.3148 187.739 47.0159 188.524 47.0159H189.556V36.7054H188.524C187.533 36.7054 187.492 36.7879 187.492 39.7986C187.492 41.4895 187.368 42.8917 187.203 42.8917C186.996 42.8917 185.84 41.4895 184.643 39.7986C182.951 37.489 182.125 36.7054 181.424 36.7054C180.474 36.7054 180.474 36.7467 180.474 41.8607Z" fill="#BF163D"/>
<path d="M191.496 36.9941C191.331 37.1178 191.207 37.6127 191.207 38.0252C191.207 38.6025 191.537 38.7675 192.858 38.7675H194.509V47.0159H196.573V38.7675H198.224C199.71 38.7675 199.876 38.6438 199.876 37.7365C199.876 36.7054 199.876 36.7054 195.83 36.7054C193.601 36.7054 191.62 36.8291 191.496 36.9941Z" fill="#BF163D"/>
<path d="M114.757 52.6661C131.352 52.7486 158.596 52.7486 175.232 52.6661C191.826 52.6248 178.245 52.5836 144.974 52.5836C111.702 52.5836 98.1215 52.6248 114.757 52.6661Z" fill="#BF163D"/>
</svg>
